<svg version="1.0" xmlns="http://www.w3.org/2000/svg" height="40" width="40" viewBox="0 0 1024 1024"
     preserveAspectRatio="xMidYMid meet">
    <defs>
        <linearGradient id="grad1" x1="0%" y1="0%" x2="100%" y2="100%">
            <stop offset="10%" style="stop-color:#3BEA62; stop-opacity:1"/>
            <stop offset="50%" style="stop-color:#3C99CC; stop-opacity:1"/>
            <stop offset="90%" style="stop-color:#6B57FF; stop-opacity:1"/>
        </linearGradient>
    </defs>
    <g transform="translate(0.000000,1024.000000) scale(0.100000,-0.100000)" fill="url(#grad1)" stroke="#333">
        <path d="M5725 8810 c-396 -3 -1092 -5 -1547 -3 -907 4 -925 3 -1208 -57 -223 -48 -402 -118 -600 -238 -136 -81 -204 -135 -325 -257 -297 -297 -471 -689 -506 -1140 -13 -177 -14 -4042 0 -4130 19 -125 78 -348 101 -380 3 -5 13 -26 20 -45 27 -71 114 -237 158 -300 107 -153 283 -339 402 -427 56 -41 234 -146 324 -190 60 -30 191 -73 306 -102 212 -52 181 -51 2322 -51 l1988 1 122 24 c236 48 479 144 659 260 41 26 85 54 99 63 52 32 199 164 274 246 107 118 235 315 290 445 25 59 63 175 84 257 76 284 72 147 72 2274 0 1112 -4 1960 -10 2036 -32 445 -250 911 -556 1193 -197 181 -450 339 -659 412 -44 15 -141 39 -215 54 -74 14 -145 30 -157 35 -13 5 -154 12 -315 15 -161 3 -318 7 -348 8 -30 2 -379 1 -775 -3z m294 -431 c65 -15 118 -45 177 -101 75 -71 112 -133 130 -219 30 -140 -13 -278 -116 -379 -171 -167 -411 -169 -589 -4 -157 145 -171 416 -30 569 120 130 257 173 428 134z m-2596 -10 c12 -6 56 -45 97 -87 41 -43 109 -107 150 -143 l75 -66 183 5 182 5 0 -35 c0 -19 3 -57 7 -83 l6 -47 -169 7 -169 7 -40 -30 c-23 -16 -88 -80 -145 -141 -58 -62 -117 -119 -132 -127 -32 -17 -81 -18 -111 -3 -12 6 -85 77 -163 157 l-141 147 -134 3 c-210 6 -299 -20 -398 -117 -58 -57 -105 -146 -122 -233 l-11 -56 -30 10 c-16 6 -49 8 -74 4 l-44 -6 0 40 c0 60 46 192 91 259 52 78 120 139 206 183 118 62 156 69 360 67 l182 -2 48 40 c26 23 94 89 151 147 56 58 107 106 113 106 6 0 20 -5 32 -11z m3983 -108 c131 -60 211 -211 180 -341 -18 -79 -54 -132 -120 -176 -79 -52 -136 -67 -210 -53 -78 14 -124 38 -170 89 -66 73 -87 163 -66 276 17 88 66 150 151 193 76 38 168 42 235 12z m-2831 -10 c52 -24 129 -106 145 -157 7 -21 13 -64 13 -94 0 -179 -206 -285 -374 -193 -135 73 -171 206 -93 340 61 106 202 153 309 104z m825 -246 l0 -75 -280 0 -280 0 0 75 0 75 280 0 280 0 0 -75z m1478 69 c21 -6 23 -11 20 -78 l-3 -71 -227 0 c-124 0 -229 2 -231 5 -3 3 -3 38 0 78 l6 72 206 0 c113 0 216 -3 229 -6z m909 -201 c135 -132 192 -274 193 -477 0 -56 -1 -58 -22 -52 -13 3 -48 6 -79 6 l-57 0 -4 103 c-3 96 -6 110 -41 180 -25 51 -54 90 -88 121 l-51 46 21 42 c11 24 25 55 30 71 6 15 15 27 20 27 5 0 40 -30 78 -67z m-3567 -113 l52 -50 -164 -168 c-90 -92 -201 -206 -247 -254 l-84 -87 -48 46 c-42 40 -47 49 -37 67 8 15 453 479 475 495 1 0 25 -22 53 -49z m220 -225 c0 -62 -3 -207 -7 -323 l-6 -212 -67 0 -67 0 -6 107 c-10 162 -8 422 4 489 18 101 11 95 84 71 l65 -21 0 -111z m-960 -87 l0 -88 -76 0 c-65 0 -75 2 -70 16 3 9 6 48 6 87 l0 72 70 0 70 0 0 -87z m2830 62 c56 -29 83 -72 88 -143 l5 -59 148 -148 148 -147 54 -5 c99 -8 157 -79 157 -191 0 -89 -51 -147 -139 -157 -44 -5 -53 -12 -202 -165 l-156 -161 4 -54 c5 -68 -18 -110 -76 -139 -90 -46 -181 -33 -240 35 -35 40 -45 71 -38 117 5 30 -3 40 -156 191 -89 88 -168 158 -176 157 -53 -10 -135 40 -167 100 -7 15 -14 55 -14 87 0 97 57 161 151 170 48 4 57 10 114 66 34 34 105 103 158 153 95 91 97 94 97 138 0 127 130 211 240 155z m-3924 -85 c63 -19 122 -69 154 -131 21 -40 25 -63 25 -129 0 -92 -12 -119 -75 -182 -141 -141 -385 -60 -428 143 -18 82 15 179 80 240 41 39 67 53 121 64 62 12 69 11 123 -5z m1218 -214 c121 -59 205 -180 228 -325 20 -133 -26 -254 -135 -352 -99 -89 -211 -123 -336 -103 -82 13 -142 45 -218 118 -98 93 -140 201 -130 332 10 133 95 262 209 320 81 41 120 49 225 45 80 -3 102 -8 157 -35z m4469 1 c82 -41 169 -129 210 -212 30 -60 32 -72 32 -165 0 -88 -3 -107 -27 -158 -38 -81 -135 -179 -217 -220 -62 -30 -72 -32 -172 -32 -101 1 -110 3 -174 35 -94 48 -157 110 -197 195 -31 67 -32 76 -33 190 0 109 2 125 27 177 47 102 150 183 273 215 29 7 84 11 133 9 68 -3 95 -9 145 -34z m-2927 -120 c140 -72 189 -278 91 -389 -36 -40 -111 -79 -172 -89 -93 -13 -222 71 -260 169 -47 123 24 276 151 323 51 19 139 12 190 -14z m-460 -249 c6 -38 10 -70 8 -73 -1 -3 -173 -4 -382 -2 l-379 2 1 70 1 70 370 0 371 0 10 -67z m2696 -3 c2 -51 -1 -71 -10 -75 -8 -3 -92 -5 -188 -5 l-174 0 0 53 c0 28 -3 62 -6 75 l-6 22 190 0 190 0 4 -70z m-4994 -454 l2 -426 -74 0 c-63 0 -75 3 -79 18 -6 19 -7 823 -2 832 2 3 36 4 77 3 l73 -1 3 -426z m2036 237 c3 -29 3 -137 0 -241 l-7 -188 -67 0 -67 1 -5 140 c-3 77 -3 186 0 242 l5 103 67 -3 68 -2 6 -52z m-1405 -74 l44 -50 -34 -30 c-19 -16 -49 -37 -66 -45 -18 -8 -33 -16 -33 -18 0 -2 12 -35 26 -72 20 -54 25 -80 21 -120 -7 -69 -39 -128 -88 -164 -80 -57 -163 -49 -235 24 -68 67 -81 164 -35 254 34 66 61 83 150 95 70 9 80 13 85 33 7 25 102 145 114 143 4 -1 27 -23 51 -50z m4545 -25 c21 -8 21 -62 -1 -94 -52 -78 -94 -98 -127 -61 -24 26 -14 53 42 113 45 48 56 53 86 42z m-250 -148 c46 -19 105 -81 128 -134 67 -150 -81 -326 -238 -283 -114 31 -196 187 -154 296 38 100 170 160 264 121z m-3830 -115 c7 -92 8 -259 0 -287 -5 -20 -11 -21 -77 -16 -40 2 -74 6 -76 8 -2 2 0 85 4 186 l7 183 68 0 67 0 7 -74z m4496 -327 l0 -385 -72 7 c-40 3 -75 8 -77 11 -6 5 -7 73 -3 446 l2 307 75 0 75 0 0 -386z m-2576 217 c10 -9 27 -29 36 -44 9 -15 90 -104 179 -197 l163 -170 180 0 c166 0 183 2 215 21 27 17 43 20 78 15 24 -4 49 -14 55 -21 15 -18 223 -21 282 -5 36 10 46 20 111 110 18 24 65 68 106 96 40 29 90 68 110 88 l37 36 17 -35 c9 -20 17 -43 17 -53 0 -9 -30 -47 -67 -84 -57 -58 -64 -68 -47 -73 79 -25 170 -110 184 -171 5 -21 10 -159 10 -306 l0 -267 165 6 165 6 0 -77 0 -78 -162 3 -163 3 -7 -180 c-4 -98 -5 -187 -2 -196 3 -10 22 -22 43 -28 45 -12 75 -38 101 -90 26 -52 25 -104 -4 -165 -36 -78 -105 -125 -184 -125 -80 0 -202 110 -202 182 0 51 23 101 63 140 l42 40 2 210 2 209 -370 -3 -369 -3 0 312 c0 217 -3 314 -11 319 -6 3 -112 6 -236 5 -218 -1 -225 -1 -251 -23 -26 -22 -202 -215 -277 -304 -20 -23 -47 -45 -60 -48 -34 -9 -88 29 -130 91 -18 26 -86 100 -151 164 l-119 117 -60 7 -60 6 3 70 4 69 37 0 c35 0 48 10 200 163 89 89 174 184 189 211 43 74 87 89 136 47z m-2809 -139 c-16 -29 -28 -38 -59 -44 -21 -5 -42 -6 -45 -2 -3 3 18 28 47 56 41 39 56 48 65 39 9 -9 7 -20 -8 -49z m2018 42 l107 -7 0 -354 0 -353 -359 2 -360 3 -5 357 -6 357 108 4 c120 5 352 0 515 -9z m1707 -104 l0 -91 -67 3 -68 3 -3 83 -3 83 43 -6 c24 -4 54 -2 68 4 14 5 26 10 28 10 1 1 2 -40 2 -89z m738 -42 c33 -31 33 -31 13 -52 -11 -12 -33 -29 -50 -39 -30 -17 -30 -17 -46 7 -18 26 -14 53 11 94 19 30 34 28 72 -10z m-4364 -54 c10 -27 19 -423 11 -557 -7 -137 -7 -138 -34 -150 -41 -18 -702 -17 -724 2 -15 12 -17 48 -17 336 0 177 3 336 6 351 l6 29 373 2 c307 1 375 -1 379 -13z m781 -23 c43 -19 100 -78 116 -118 18 -49 11 -116 -18 -161 -92 -142 -325 -88 -341 78 -9 101 23 165 103 201 51 23 89 23 140 0z m433 -168 l3 -73 -102 0 -102 0 6 34 c3 19 2 50 -3 69 l-8 36 52 4 c28 2 74 3 101 3 l50 -1 3 -72z m-789 35 c0 -16 -2 -18 -6 -8 -3 8 -11 18 -17 22 -7 5 -4 8 7 8 11 0 17 -7 16 -22z m4957 -287 c86 -40 175 -130 218 -220 29 -61 31 -74 31 -171 0 -100 -2 -109 -34 -175 -84 -169 -259 -262 -446 -236 -85 12 -138 39 -213 107 -82 73 -127 163 -137 269 -17 179 54 325 201 411 107 63 265 69 380 15z m-4650 -51 l54 0 0 -67 0 -68 -70 0 -70 0 0 74 c0 63 2 72 16 67 9 -3 40 -6 70 -6z m1004 -227 c0 -60 -3 -138 -6 -175 -7 -64 -8 -67 -37 -74 -16 -3 -47 -22 -68 -41 l-39 -35 0 163 c0 90 3 188 6 217 l7 52 68 0 69 0 0 -107z m624 -13 c21 -8 26 -16 26 -45 0 -32 -10 -47 -99 -135 -86 -86 -101 -98 -112 -84 -7 8 -32 27 -57 41 l-44 26 74 75 c84 86 143 132 169 132 10 0 29 -4 43 -10z m-1589 -21 c27 -7 57 -29 92 -64 47 -48 55 -64 83 -157 17 -56 35 -110 39 -118 4 -8 48 -26 98 -40 119 -34 195 -74 244 -127 72 -79 86 -145 47 -223 -29 -56 -80 -91 -184 -124 -49 -16 -108 -45 -150 -74 l-69 -47 -16 -75 c-28 -135 -74 -205 -155 -236 -54 -20 -139 -15 -187 13 -45 26 -94 103 -118 187 -17 60 -28 78 -69 116 -61 57 -147 109 -202 123 -60 14 -112 58 -142 119 -78 156 27 297 273 367 41 11 78 24 83 29 5 5 16 37 23 71 28 118 96 219 170 252 46 21 84 23 140 8z m-577 -145 c61 -69 112 -129 112 -133 0 -5 -23 -18 -50 -30 -43 -19 -54 -20 -74 -9 -38 21 -229 202 -250 238 l-19 33 29 -7 c47 -11 77 -7 99 14 10 11 24 20 30 19 5 0 61 -57 123 -125z m-498 -87 l0 -177 -74 2 -74 1 -6 36 c-7 46 -8 235 0 281 l6 35 74 0 74 0 0 -178z m2354 -50 c74 -34 169 -125 204 -196 24 -49 27 -68 27 -151 0 -88 -3 -101 -33 -163 -36 -73 -102 -136 -189 -178 -65 -32 -226 -35 -287 -5 -64 32 -162 131 -192 193 -34 73 -43 178 -21 253 30 102 161 230 271 266 59 20 153 12 220 -19z m1621 -3 c99 -46 258 -204 310 -308 42 -85 33 -120 -61 -237 -54 -69 -166 -174 -241 -228 -94 -68 -189 -21 -381 189 -48 52 -99 111 -114 130 -24 31 -30 34 -48 23 -15 -10 -110 -13 -384 -13 l-364 0 2 69 1 68 165 6 c91 4 269 3 395 -2 l230 -9 40 47 c222 257 330 320 450 265z m-3983 -262 c13 -11 50 -16 143 -20 l125 -5 0 -63 c0 -34 2 -68 5 -76 4 -10 -7 -13 -42 -13 -27 0 -87 -2 -135 -3 l-88 -2 0 -148 0 -147 -75 0 -74 0 -5 40 c-10 78 -18 375 -11 406 5 21 16 35 36 43 35 15 98 9 121 -12z m5597 -323 c1 -135 -1 -248 -3 -250 -2 -2 -38 -3 -79 -1 l-74 3 -2 127 c-1 70 1 189 5 264 l7 137 66 3 c59 3 67 1 73 -17 3 -11 6 -131 7 -266z m-919 -371 l0 -259 -70 2 -70 2 1 231 c1 212 6 279 19 276 3 -1 12 1 20 4 34 11 45 12 72 8 l28 -4 0 -260z m-2705 216 l65 -46 0 -324 c0 -214 -3 -323 -10 -319 -5 3 -10 -1 -10 -9 0 -10 -9 -16 -25 -16 -16 0 -25 -6 -25 -15 0 -8 -6 -15 -14 -15 -8 0 -17 -6 -19 -12 -3 -7 -6 1 -7 17 l-2 30 -7 -30 c-10 -45 -31 299 -31 505 0 156 7 280 16 280 2 0 33 -21 69 -46z m565 -61 c30 -36 76 -84 103 -106 26 -22 47 -44 47 -50 0 -5 -11 -17 -24 -28 -13 -10 -29 -32 -36 -49 -7 -16 -16 -30 -19 -30 -4 0 -65 56 -136 125 -91 90 -125 129 -117 137 15 15 105 67 117 67 6 0 35 -30 65 -66z m-2509 -79 c56 -28 110 -81 136 -132 26 -54 24 -173 -4 -227 -51 -97 -158 -156 -256 -141 -139 23 -250 159 -233 289 8 59 26 96 73 155 74 90 177 111 284 56z m5593 -74 c170 -53 316 -244 316 -414 0 -75 -35 -188 -76 -248 -38 -54 -97 -103 -164 -136 -50 -25 -65 -27 -170 -27 -102 1 -121 3 -170 26 -158 74 -251 238 -237 421 9 107 45 184 130 271 114 118 229 151 371 107z m-1582 -17 c93 -40 157 -83 211 -143 62 -69 83 -111 98 -195 18 -105 8 -184 -32 -252 -52 -87 -128 -159 -206 -196 -61 -29 -77 -32 -158 -32 -125 1 -185 26 -280 116 -99 95 -136 173 -136 292 0 46 6 102 14 124 33 96 114 200 197 253 102 66 192 76 292 33z m-1027 -47 c77 -45 121 -141 101 -220 -10 -40 -56 -87 -111 -112 -90 -42 -173 -26 -246 47 -53 52 -65 89 -49 150 40 147 179 208 305 135z m-1618 -213 c93 -98 209 -220 257 -272 89 -95 128 -159 142 -235 8 -43 -3 -56 -49 -56 -15 0 -43 -6 -62 -14 -36 -15 -45 -9 -45 32 0 60 -25 100 -134 212 -259 267 -356 381 -356 419 0 13 59 88 71 90 3 1 82 -79 176 -176z m-287 50 c0 -43 -3 -88 -6 -100 -5 -19 -9 -20 -36 -11 -16 6 -47 8 -68 5 l-39 -5 -3 94 -3 94 78 0 77 0 0 -77z m2337 -205 l5 -68 -182 0 c-169 0 -180 1 -171 18 5 9 21 28 36 42 15 14 33 38 41 53 l15 28 126 -3 126 -3 4 -67z m1593 2 l0 -70 -290 0 -290 0 0 70 0 70 290 0 290 0 0 -70z m-3911 -45 c36 -19 88 -74 100 -108 30 -80 -7 -192 -81 -243 -36 -25 -50 -29 -114 -29 -64 0 -77 3 -115 30 -88 62 -117 181 -65 269 26 44 72 80 124 97 34 11 117 2 151 -16z m1792 -45 l59 0 0 -154 0 -154 -72 2 -73 1 -3 159 c-2 142 -1 158 14 152 8 -3 42 -6 75 -6z m-2899 -73 c6 -65 30 -125 94 -225 19 -29 34 -54 34 -56 0 -2 -25 -23 -56 -47 l-57 -44 -31 37 c-37 42 -109 184 -124 243 -6 22 -14 66 -17 98 l-7 57 79 0 80 0 5 -63z m1927 -32 c16 -3 39 -17 52 -31 21 -23 24 -35 24 -107 l0 -82 -55 4 c-30 1 -56 4 -57 5 -4 4 -5 72 -2 171 1 61 4 96 6 78 3 -25 10 -33 32 -38z m1597 -47 c15 -18 33 -48 41 -67 l14 -33 -58 -62 c-32 -34 -91 -96 -131 -139 l-73 -78 -62 57 -62 57 124 126 c67 69 130 136 138 149 21 30 36 28 69 -10z m445 -275 c1 -18 2 -46 3 -63 1 -30 0 -30 -51 -30 -28 0 -58 -3 -66 -6 -12 -4 -16 8 -22 55 -4 33 -5 64 -2 68 3 4 35 8 71 8 l66 0 1 -32z m1609 -18 c-2 -187 -34 -261 -182 -407 -95 -94 -108 -111 -108 -140 0 -76 -85 -190 -177 -236 -95 -49 -201 -49 -295 -1 -48 25 -126 104 -153 156 -10 21 -26 46 -34 56 -15 18 -67 24 -73 8 -4 -11 -242 -19 -245 -8 -7 19 -2 148 5 143 5 -3 76 -6 158 -7 l149 -1 32 66 c41 82 107 150 181 184 46 21 72 26 132 26 95 0 163 -29 238 -102 29 -29 57 -52 62 -52 17 0 91 87 121 144 25 46 33 75 36 130 3 39 6 76 7 81 2 6 36 10 75 10 l71 0 0 -50z m-2534 1 c67 -31 190 -149 224 -216 26 -50 40 -187 28 -259 -28 -162 -173 -301 -345 -331 -123 -21 -266 26 -361 120 -65 64 -96 116 -121 207 -36 133 1 273 101 379 52 55 115 94 193 121 65 21 212 10 281 -21z m-2546 0 c108 -39 232 -167 263 -271 l14 -50 332 -3 c276 -2 331 0 331 12 0 7 16 45 35 84 43 85 142 182 224 221 132 61 305 29 442 -81 52 -42 115 -138 130 -200 l13 -48 56 0 c47 0 60 -4 79 -24 15 -16 19 -25 10 -28 -9 -3 -9 -11 3 -35 20 -39 13 -43 -78 -43 -61 0 -65 -1 -75 -27 -42 -116 -145 -236 -240 -280 -102 -48 -236 -50 -341 -4 -101 43 -198 146 -240 254 l-23 58 -329 -4 -329 -3 -12 -35 c-54 -156 -172 -263 -325 -295 -181 -37 -379 66 -467 244 -36 71 -38 82 -38 167 0 82 3 97 33 158 51 104 159 204 255 239 63 22 206 19 277 -6z m3525 -228 c88 -44 147 -129 160 -230 19 -150 -97 -280 -250 -281 -70 0 -117 17 -169 63 -82 72 -119 182 -92 273 29 100 97 167 196 193 53 15 99 9 155 -18z m-469 -130 c-3 -13 -6 -41 -6 -63 0 -62 -8 -68 -81 -60 l-64 7 3 67 3 67 76 3 c75 2 76 2 69 -21z"/>
        <path d="M5848 8247 c-123 -35 -208 -144 -208 -269 0 -79 19 -134 62 -183 80 -91 196 -125 298 -86 109 41 175 125 186 238 12 112 -52 230 -149 277 -65 32 -128 40 -189 23z m129 -136 c52 -24 95 -86 97 -138 2 -92 -84 -171 -173 -159 -159 21 -194 222 -51 294 54 27 73 27 127 3z"/>
        <path d="M3297 8104 c-64 -59 -117 -108 -117 -111 0 -2 50 -55 111 -117 l110 -113 122 119 121 118 -39 32 c-22 18 -74 65 -116 105 l-76 73 -116 -106z"/>
        <path d="M7240 8122 c-72 -36 -104 -146 -65 -226 69 -142 288 -68 273 93 -6 59 -38 104 -93 131 -51 25 -70 25 -115 2z"/>
        <path d="M4440 8122 c-23 -11 -43 -32 -58 -64 -23 -45 -23 -48 -7 -82 33 -68 111 -95 169 -57 94 62 67 179 -49 215 -11 3 -36 -2 -55 -12z"/>
        <path d="M6207 7365 c-7 -16 8 -29 23 -20 15 9 12 35 -4 35 -8 0 -16 -7 -19 -15z"/>
        <path d="M5971 7070 c-143 -140 -153 -152 -143 -174 18 -40 24 -111 13 -151 l-10 -38 118 -121 c65 -67 133 -138 152 -158 l34 -38 49 17 c46 15 52 15 98 -1 l49 -17 52 58 c28 32 75 81 102 108 28 28 76 79 108 114 56 63 57 65 41 89 -20 30 -22 89 -4 132 10 25 10 34 -3 54 -22 34 -285 276 -299 276 -7 0 -32 -7 -55 -16 -41 -16 -75 -14 -133 10 -10 4 -65 -43 -169 -144z"/>
        <path d="M6224 6295 c-20 -14 -13 -42 11 -52 20 -7 34 6 37 36 3 28 -21 36 -48 16z"/>
        <path d="M2248 7285 c-39 -22 -63 -91 -49 -142 19 -70 86 -113 148 -92 36 12 78 59 88 101 9 35 -9 89 -40 118 -31 29 -108 37 -147 15z"/>
        <path d="M3348 7101 c-104 -34 -188 -146 -188 -250 0 -147 127 -281 265 -281 93 0 197 68 241 156 29 58 27 174 -4 234 -50 95 -116 139 -219 145 -37 3 -80 1 -95 -4z m135 -125 c45 -19 74 -54 88 -107 11 -43 10 -50 -12 -95 -28 -56 -60 -82 -110 -90 -114 -19 -211 131 -147 226 26 39 91 80 126 80 12 0 37 -6 55 -14z"/>
        <path d="M7782 7084 c-63 -31 -126 -105 -143 -167 -15 -57 -6 -154 19 -203 27 -53 75 -99 136 -129 90 -45 197 -27 281 47 69 61 90 107 90 203 0 70 -4 86 -28 127 -42 72 -93 116 -151 132 -85 23 -144 20 -204 -10z m152 -104 c45 -17 105 -80 117 -122 9 -36 8 -46 -13 -87 -33 -64 -77 -91 -146 -91 -51 0 -57 3 -98 43 -23 24 -46 55 -49 70 -17 68 26 145 100 178 46 21 55 22 89 9z"/>
        <path d="M4993 6974 c-73 -36 -84 -155 -18 -198 84 -55 185 -6 185 89 0 95 -84 150 -167 109z"/>
        <path d="M5191 5836 c-122 -123 -141 -147 -132 -163 5 -10 70 -78 144 -152 104 -102 138 -131 150 -125 9 5 79 71 156 148 95 93 138 142 133 151 -33 59 -267 285 -295 285 -7 0 -77 -65 -156 -144z"/>
        <path d="M6675 5657 l-100 -72 -127 -3 c-123 -3 -126 -4 -132 -27 -3 -13 -14 -26 -24 -29 -9 -3 -5 -4 10 -2 l26 3 7 -93 c4 -50 6 -148 4 -216 l-4 -123 33 1 c17 0 150 1 295 2 l262 2 -3 247 -3 248 -62 66 c-34 37 -66 67 -72 67 -5 1 -55 -31 -110 -71z"/>
        <path d="M4278 5925 c-3 -3 -38 -6 -78 -6 l-73 0 7 -76 c3 -42 6 -139 6 -217 l0 -141 93 -4 c119 -5 154 -6 257 -3 l85 2 3 219 3 218 -107 6 c-131 8 -189 9 -196 2z"/>
        <path d="M2070 5500 l0 -240 249 0 248 0 5 153 c3 83 3 191 0 240 l-5 87 -248 0 -249 0 0 -240z"/>
        <path d="M7815 5292 c-73 -24 -145 -99 -169 -176 -33 -105 -4 -220 74 -290 61 -55 113 -76 190 -76 193 0 320 186 256 375 -27 82 -94 142 -185 169 -67 20 -102 19 -166 -2z m162 -113 c49 -24 93 -88 93 -135 -1 -41 -33 -107 -65 -132 -41 -32 -99 -46 -140 -32 -39 13 -110 88 -119 126 -15 59 34 139 109 178 40 21 70 20 122 -5z"/>
        <path d="M3362 4954 c-12 -8 -32 -34 -43 -57 -12 -23 -31 -52 -42 -64 -11 -13 -18 -25 -15 -28 3 -4 43 -2 89 3 70 8 93 7 135 -7 l52 -17 -13 35 c-14 40 -51 107 -73 134 -19 21 -60 22 -90 1z"/>
        <path d="M3222 4703 c-13 -3 -31 -18 -40 -34 -10 -16 -21 -28 -27 -27 -27 6 -204 -78 -242 -114 -44 -41 -23 -116 37 -136 26 -10 32 -8 49 15 23 28 36 84 27 109 -8 20 43 70 78 76 45 9 56 -7 56 -78 0 -77 -16 -114 -65 -144 -19 -12 -35 -25 -35 -29 0 -5 25 -25 55 -45 30 -20 67 -55 82 -79 15 -23 38 -54 51 -69 l24 -26 41 19 c58 26 121 24 184 -5 l52 -25 28 47 c43 73 45 79 43 207 0 85 3 125 12 138 13 17 15 17 33 -3 16 -18 21 -40 23 -116 4 -105 8 -109 63 -69 19 13 57 38 84 54 81 48 98 68 91 105 -8 41 -26 53 -186 133 -74 36 -142 72 -150 78 -15 13 -321 27 -368 18z"/>
        <path d="M3356 4018 c-21 -30 -20 -44 4 -68 40 -40 120 -16 120 37 0 51 -94 74 -124 31z"/>
        <path d="M4519 4680 c-20 -11 -57 -42 -82 -70 -88 -97 -82 -215 15 -306 52 -50 106 -74 164 -74 44 0 61 6 112 40 84 56 116 120 110 219 -3 58 -9 78 -33 113 -62 87 -198 124 -286 78z m182 -119 c35 -35 39 -44 39 -89 0 -62 -30 -103 -94 -127 -41 -16 -46 -16 -80 0 -39 19 -70 56 -87 104 -23 66 56 151 140 151 37 0 49 -6 82 -39z"/>
        <path d="M6228 4670 c-49 -26 -128 -106 -179 -181 l-41 -60 28 -37 c52 -69 139 -154 197 -194 51 -35 61 -38 75 -26 167 137 258 242 248 284 -15 60 -217 235 -270 234 -12 -1 -38 -10 -58 -20z m117 -144 c46 -32 64 -58 65 -93 0 -38 -41 -89 -94 -118 l-34 -19 -37 28 c-40 31 -75 81 -75 109 0 42 96 131 129 120 9 -4 30 -16 46 -27z"/>
        <path d="M2265 3811 c-32 -14 -56 -46 -66 -91 -8 -33 -6 -50 10 -85 37 -85 129 -99 190 -29 25 28 31 43 31 82 0 61 -17 93 -60 114 -37 19 -73 22 -105 9z"/>
        <path d="M7824 3720 c-84 -26 -168 -142 -181 -249 -11 -97 54 -234 132 -278 101 -56 246 -32 327 55 38 41 48 60 61 118 33 146 -23 273 -145 333 -51 24 -149 35 -194 21z m165 -143 c50 -33 75 -86 68 -145 -4 -35 -13 -53 -45 -85 -35 -35 -47 -41 -96 -45 -45 -4 -60 -1 -82 17 -49 39 -74 82 -74 128 0 58 21 96 73 134 50 37 96 35 156 -4z"/>
        <path d="M6215 3697 c-56 -27 -116 -88 -141 -144 -26 -58 -23 -176 5 -231 78 -152 214 -203 356 -133 143 71 204 235 136 369 -23 46 -94 112 -149 138 -60 29 -148 29 -207 1z m186 -126 c109 -68 118 -167 23 -250 -79 -70 -132 -63 -213 25 -46 50 -51 60 -51 103 0 54 16 81 73 122 54 39 107 39 168 0z"/>
        <path d="M7278 2571 c-99 -63 -131 -175 -73 -260 45 -67 75 -85 148 -88 100 -6 160 40 203 154 l18 46 -30 56 c-62 115 -171 152 -266 92z m161 -117 c29 -37 26 -68 -10 -98 -35 -29 -67 -33 -108 -11 -48 24 -53 59 -15 104 21 26 33 31 69 31 35 0 48 -5 64 -26z"/>
        <path d="M5170 2764 c-65 -30 -114 -74 -143 -129 -17 -31 -22 -58 -22 -120 0 -71 3 -86 31 -135 51 -91 161 -160 256 -160 21 0 60 9 88 19 119 45 185 141 184 266 -1 87 -25 144 -86 203 -83 80 -207 103 -308 56z m167 -105 c39 -14 101 -77 113 -114 19 -58 -32 -160 -96 -190 -72 -34 -163 0 -209 79 -46 78 -27 156 51 206 50 32 93 38 141 19z"/>
        <path d="M2675 2768 c-45 -16 -103 -62 -137 -108 -98 -133 -46 -331 106 -405 174 -85 388 50 388 243 0 82 -32 150 -98 211 -72 66 -173 89 -259 59z"/>
        <path d="M4200 2766 c-124 -33 -210 -139 -210 -259 0 -76 25 -139 73 -188 121 -121 295 -119 405 6 95 108 94 245 -4 354 -69 76 -174 111 -264 87z m147 -145 c81 -61 87 -168 11 -238 -72 -67 -183 -39 -234 59 -65 126 107 264 223 179z"/>
        <path d="M6263 2530 c-41 -24 -53 -48 -53 -102 0 -123 131 -181 209 -92 25 28 31 44 31 80 0 59 -23 102 -65 120 -47 19 -84 18 -122 -6z"/>
    </g>
</svg>